<svg width="86" height="85" viewBox="0 0 86 85" fill="none" xmlns="http://www.w3.org/2000/svg">
<g clip-path="url(#clip0_6_14)">
<g clip-path="url(#clip1_6_14)">
<path d="M49.286 49.8657L49.9831 50.2347L50.6528 49.811C51.3021 49.3969 51.9028 48.9109 52.4433 48.3622C53.6098 47.1874 54.4838 45.7549 54.995 44.1802C55.5062 42.6056 55.6402 40.9328 55.3862 39.2969C55.1321 37.6609 54.4972 36.1075 53.5325 34.762C52.5679 33.4165 51.3005 32.3166 49.8327 31.5508L49.122 31.1818L48.4523 31.6055C46.902 32.6114 45.6419 34.0053 44.7971 35.6489C43.9523 37.2925 43.5522 39.1285 43.6364 40.9745C43.7207 42.8206 44.2865 44.6124 45.2776 46.1722C46.2687 47.7319 47.6505 49.0053 49.286 49.8657ZM49.286 34.2844C50.3201 34.969 51.1772 35.889 51.7869 36.9689C52.3966 38.0488 52.7416 39.2579 52.7937 40.497C52.8457 41.7361 52.6032 42.9699 52.0861 44.0971C51.5691 45.2243 50.7921 46.2129 49.819 46.9818C48.7824 46.2991 47.9229 45.3798 47.3114 44.2998C46.6998 43.2197 46.3538 42.0097 46.3017 40.7696C46.2496 39.5295 46.4931 38.2947 47.0119 37.1672C47.5308 36.0396 48.3102 35.0515 49.286 34.2844ZM29.4404 52.0525L29.0713 52.7496L29.495 53.4193C30.343 54.7585 31.4819 55.8895 32.827 56.7282C34.1721 57.5668 35.6888 58.0917 37.2646 58.2637C38.8404 58.4357 40.4346 58.2505 41.929 57.7218C43.4234 57.1931 44.7794 56.3345 45.8964 55.2098C46.6608 54.4585 47.3019 53.5913 47.7962 52.6403L48.1516 51.9432L47.7279 51.2735C46.7333 49.7072 45.3438 48.4304 43.6992 47.5716C42.0546 46.7128 40.2128 46.3022 38.3591 46.3812C36.5054 46.4601 34.7052 47.0259 33.1396 48.0214C31.5739 49.017 30.2981 50.4073 29.4404 52.0525ZM44.967 52.0525C44.2824 53.0866 43.3624 53.9437 42.2825 54.5534C41.2025 55.1632 39.9934 55.5082 38.7543 55.5602C37.5153 55.6122 36.2815 55.3697 35.1543 54.8527C34.027 54.3356 33.0384 53.5587 32.2696 52.5856C32.9542 51.5515 33.8742 50.6944 34.9541 50.0847C36.034 49.4749 37.2431 49.1299 38.4822 49.0779C39.7213 49.0259 40.9551 49.2684 42.0823 49.7854C43.2095 50.3025 44.1981 51.0795 44.967 52.0525ZM31.8049 31.3458C32.0106 33.1909 32.697 34.9497 33.7955 36.4464C34.894 37.9431 36.3662 39.1252 38.0647 39.8745L38.7891 40.2026L39.4178 39.7242C39.8506 39.4112 40.2574 39.0638 40.6343 38.6854C41.8581 37.4722 42.7666 35.9781 43.2806 34.3332C43.7945 32.6884 43.8984 30.9428 43.583 29.2486C43.2676 27.5544 42.5426 25.9631 41.4712 24.6134C40.3998 23.2637 39.0144 22.1966 37.436 21.505L36.7116 21.1907L36.0692 21.6554C34.575 22.7584 33.3953 24.2331 32.6472 25.933C31.8992 27.6329 31.6088 29.499 31.8049 31.3458ZM37.0533 24.3753C38.1315 24.9885 39.0486 25.8491 39.7291 26.8861C40.4096 27.9231 40.8341 29.107 40.9675 30.3401C41.101 31.5733 40.9396 32.8205 40.4967 33.9791C40.0539 35.1377 39.3421 36.1746 38.4201 37.0043C37.3443 36.389 36.4296 35.5275 35.7509 34.4905C35.0722 33.4536 34.6489 32.2705 34.5155 31.0384C34.3822 29.8062 34.5426 28.56 34.9837 27.4019C35.4248 26.2437 36.1341 25.2065 37.0533 24.3753ZM26.8571 37.018C25.0129 37.2263 23.2553 37.9138 21.7591 39.012C20.2628 40.1102 19.0801 41.5808 18.3284 43.2778L18.0004 44.0022L18.4788 44.6446C19.3799 45.8772 20.5375 46.8998 21.8717 47.642C23.206 48.3843 24.6853 48.8285 26.2078 48.9441C27.7303 49.0597 29.2597 48.844 30.6908 48.3117C32.1218 47.7795 33.4205 46.9434 34.4974 45.861C35.4248 44.937 36.1712 43.8476 36.698 42.6491L37.0123 41.9247L36.5476 41.2823C35.4455 39.787 33.971 38.6066 32.2708 37.8584C30.5706 37.1102 28.7041 36.8204 26.8571 37.018ZM27.8686 46.1891C26.6363 46.3213 25.3902 46.1613 24.2314 45.722C23.0726 45.2827 22.0336 44.5764 21.1987 43.6605C21.8119 42.5823 22.6725 41.6652 23.7095 40.9847C24.7465 40.3042 25.9304 39.8798 27.1635 39.7463C28.3967 39.6129 29.644 39.7742 30.8026 40.2171C31.9612 40.66 32.998 41.3717 33.8277 42.2937C33.2086 43.3641 32.3468 44.2742 31.3118 44.9507C30.2768 45.6273 29.0974 46.0514 27.8686 46.1891ZM19.3262 22.5984C19.7078 24.4151 20.5584 26.1001 21.7933 27.4861C23.0282 28.872 24.6044 29.9106 26.3651 30.4984L27.1168 30.7581L27.7045 30.2251L28.1419 29.815C29.4259 28.5444 30.3626 26.9657 30.8626 25.2299C31.3626 23.494 31.4092 21.6589 30.9979 19.9C30.5866 18.141 29.7312 16.5168 28.5133 15.1827C27.2955 13.8485 25.7559 12.8489 24.0416 12.2793L23.3172 12.0196L22.7295 12.5526C21.3348 13.7845 20.2869 15.3599 19.6898 17.1222C19.0928 18.8846 18.9674 20.7726 19.3262 22.5984ZM23.9049 15.1495C25.0366 15.6585 26.0314 16.4287 26.8077 17.3969C27.5839 18.365 28.1194 19.5035 28.3702 20.7188C28.621 21.9341 28.58 23.1916 28.2504 24.3879C27.9209 25.5843 27.3122 26.6854 26.4745 27.6009C25.3427 27.0918 24.3479 26.3216 23.5717 25.3535C22.7954 24.3853 22.2599 23.2468 22.0091 22.0315C21.7583 20.8162 21.7994 19.5588 22.1289 18.3624C22.4585 17.1661 23.0672 16.0649 23.9049 15.1495ZM25.0667 33.2046L25.3264 32.4529L24.7933 31.8652C23.5567 30.4948 21.9831 29.4718 20.2288 28.8978C18.4744 28.3238 16.6004 28.2188 14.793 28.5933C12.9855 28.9678 11.3075 29.8087 9.92562 31.0325C8.54374 32.2562 7.50612 33.8203 6.91584 35.5692L6.65615 36.3209L7.18919 36.9086C8.14371 37.9917 9.31058 38.8671 10.6174 39.4805C11.9243 40.0939 13.3432 40.4322 14.7863 40.4745C16.2293 40.5168 17.6656 40.2621 19.0062 39.7263C20.3467 39.1905 21.5628 38.385 22.5791 37.3597C23.7198 36.192 24.5717 34.7738 25.0667 33.2183V33.2046ZM16.6063 37.5647C15.398 37.8037 14.1505 37.7563 12.9637 37.4264C11.777 37.0965 10.684 36.4932 9.77241 35.6648C10.2805 34.532 11.0506 33.5362 12.0192 32.7596C12.9879 31.9829 14.1273 31.4477 15.3435 31.198C16.5597 30.9484 17.8178 30.9915 19.0141 31.3237C20.2104 31.656 21.3105 32.2679 22.2238 33.109C21.7069 34.2446 20.9284 35.2417 19.952 36.0185C18.9756 36.7954 17.8291 37.3299 16.6063 37.5783V37.5647ZM5.90442 25.5507C7.55623 26.4008 9.40172 26.8039 11.2575 26.72C13.1134 26.636 14.9149 26.068 16.4833 25.0723L17.153 24.6486V23.8559C17.065 21.9999 16.4904 20.1998 15.4868 18.6361C14.4833 17.0724 13.086 15.8002 11.4354 14.9472C9.78472 14.0941 7.93873 13.6903 6.08268 13.7762C4.22663 13.8621 2.42582 14.4347 0.861006 15.4365L0.191284 15.8602V16.653C0.279723 18.5086 0.854 20.3084 1.85664 21.8723C2.85928 23.4363 4.25511 24.7094 5.90442 25.5643V25.5507ZM10.1414 17.35C11.23 17.9321 12.1675 18.7604 12.8794 19.7689C13.5913 20.7774 14.0578 21.9382 14.2418 23.1588C13.1343 23.7172 11.9103 24.005 10.6701 23.9987C9.42992 23.9924 8.20888 23.6922 7.10717 23.1227C6.00546 22.5531 5.05446 21.7305 4.33221 20.7223C3.60995 19.7141 3.13701 18.549 2.95218 17.3227C4.06832 16.7603 5.30196 16.4708 6.55174 16.478C7.80152 16.4851 9.03178 16.7886 10.1414 17.3637V17.35ZM85.1913 36.0749V48.5399C85.1913 48.9024 85.0473 49.2501 84.791 49.5064C84.5346 49.7627 84.187 49.9067 83.8245 49.9067H77.879C76.9978 54.0232 75.377 57.9456 73.0953 61.4833L77.2913 65.7203C77.4194 65.8474 77.5211 65.9986 77.5905 66.1651C77.6599 66.3317 77.6956 66.5103 77.6956 66.6907C77.6956 66.8712 77.6599 67.0498 77.5905 67.2164C77.5211 67.3829 77.4194 67.5341 77.2913 67.6612L68.4209 76.4495C68.1648 76.7041 67.8184 76.847 67.4573 76.847C67.0962 76.847 66.7498 76.7041 66.4937 76.4495L62.2977 72.2535C58.7521 74.5295 54.8262 76.1499 50.7074 77.0373V82.9827C50.7074 83.3452 50.5634 83.6929 50.3071 83.9492C50.0508 84.2055 49.7032 84.3495 49.3407 84.3495H36.985C36.6225 84.3495 36.2748 84.2055 36.0185 83.9492C35.7622 83.6929 35.6182 83.3452 35.6182 82.9827V77.0373C31.5003 76.1536 27.5775 74.528 24.0416 72.2399L19.8456 76.4495C19.7179 76.5762 19.5664 76.6764 19.3999 76.7445C19.2333 76.8125 19.055 76.8469 18.8752 76.8459C18.5166 76.8444 18.173 76.702 17.9184 76.4495L9.04801 67.6338C8.91991 67.5068 8.81823 67.3556 8.74884 67.189C8.67945 67.0225 8.64372 66.8438 8.64372 66.6634C8.64372 66.483 8.67945 66.3043 8.74884 66.1378C8.81823 65.9712 8.91991 65.8201 9.04801 65.693L13.244 61.4833C10.9561 57.9523 9.33042 54.034 8.44663 49.9204H2.50114C2.13865 49.9204 1.791 49.7764 1.53468 49.52C1.27836 49.2637 1.13436 48.9161 1.13436 48.5536V36.0886C1.13436 35.7261 1.27836 35.3784 1.53468 35.1221C1.791 34.8658 2.13865 34.7218 2.50114 34.7218H5.35771C5.22103 35.0361 5.07069 35.3642 4.96134 35.6922L4.71532 36.4439L5.2347 37.0316C5.37138 37.182 5.52172 37.3187 5.67207 37.4553H3.86792V47.1868H9.56739C9.89103 47.1815 10.206 47.2913 10.4563 47.4965C10.7066 47.7017 10.876 47.9892 10.9342 48.3076C11.7461 52.8246 13.5222 57.1134 16.1416 60.8819C16.3243 61.1463 16.408 61.4666 16.378 61.7865C16.348 62.1065 16.2062 62.4056 15.9776 62.6314L11.9593 66.6634L18.7932 73.4973L22.8251 69.397C23.0518 69.1739 23.3491 69.0368 23.666 69.0094C23.9828 68.9819 24.2993 69.0658 24.561 69.2466C28.3352 71.8674 32.6278 73.6478 37.149 74.4677C37.4674 74.5259 37.7548 74.6953 37.96 74.9456C38.1653 75.1958 38.275 75.5109 38.2698 75.8345V81.534H48.0012V75.9165C47.9959 75.5929 48.1057 75.2779 48.3109 75.0276C48.5162 74.7773 48.8036 74.6079 49.122 74.5497C53.6447 73.7285 57.9406 71.9533 61.7237 69.3423C61.9853 69.1615 62.3018 69.0776 62.6186 69.105C62.9355 69.1325 63.2328 69.2695 63.4595 69.4926L67.4778 73.593L74.3117 66.7591L70.2934 62.7407C70.0648 62.5149 69.923 62.2158 69.893 61.8959C69.863 61.5759 69.9467 61.2556 70.1294 60.9913C72.7378 57.2118 74.5129 52.9209 75.3368 48.4032C75.395 48.0848 75.5644 47.7974 75.8146 47.5922C76.0649 47.3869 76.3799 47.2772 76.7036 47.2825H82.4031V37.4553H76.7583C76.4346 37.4606 76.1196 37.3509 75.8693 37.1456C75.619 36.9404 75.4497 36.653 75.3915 36.3346C74.571 31.8201 72.7955 27.533 70.184 23.7602C69.9974 23.4904 69.914 23.1624 69.9491 22.8362C69.9842 22.51 70.1355 22.2073 70.3754 21.9834L74.3937 17.8831L67.5598 11.0492L63.4868 15.1495C63.2593 15.376 62.9593 15.5153 62.6394 15.5428C62.3195 15.5703 62.0002 15.4843 61.7374 15.2998C57.9613 12.6825 53.6694 10.9023 49.1493 10.0787C48.8309 10.0205 48.5435 9.85119 48.3383 9.6009C48.133 9.35061 48.0233 9.0356 48.0286 8.71196V3.02616H38.3518V8.72563C38.357 9.04927 38.2473 9.36428 38.042 9.61457C37.8368 9.86486 37.5494 10.0342 37.231 10.0924C34.2711 10.6371 31.4009 11.5892 28.7023 12.9216C28.08 12.1699 27.3527 11.5116 26.5428 10.9672C29.3948 9.42517 32.45 8.29325 35.6182 7.60487V1.65938C35.6182 1.29689 35.7622 0.949245 36.0185 0.692924C36.2748 0.436604 36.6225 0.292603 36.985 0.292603H49.45C49.8125 0.292603 50.1601 0.436604 50.4165 0.692924C50.6728 0.949245 50.8168 1.29689 50.8168 1.65938V7.60487C54.9209 8.49892 58.8292 10.1289 62.3524 12.4159L66.5347 8.20626C66.7967 7.9565 67.1433 7.81492 67.5052 7.80989C67.685 7.80885 67.8633 7.84333 68.0299 7.91134C68.1964 7.97936 68.3479 8.07958 68.4756 8.20626L77.2913 17.022C77.4194 17.149 77.5211 17.3002 77.5905 17.4668C77.6599 17.6333 77.6956 17.812 77.6956 17.9924C77.6956 18.1728 77.6599 18.3515 77.5905 18.518C77.5211 18.6846 77.4194 18.8357 77.2913 18.9628L73.0953 23.1725C75.3744 26.7066 76.9951 30.6241 77.879 34.7354H83.8245C84.1846 34.7354 84.5302 34.8775 84.7862 35.1309C85.0421 35.3843 85.1877 35.7284 85.1913 36.0886V36.0749ZM12.9843 13.359C12.9185 13.3258 12.8499 13.2984 12.7793 13.277L17.8501 8.19259C18.1062 7.93802 18.4526 7.79514 18.8137 7.79514C19.1747 7.79514 19.5211 7.93802 19.7772 8.19259L22.0324 10.4478C21.385 11.1089 20.8288 11.8535 20.3786 12.662L18.8205 11.0492L15.1165 14.8215C14.4668 14.2505 13.7509 13.7596 12.9843 13.359ZM31.9279 61.866C33.611 62.8482 35.4173 63.6019 37.2993 64.1075C39.2124 64.6155 41.1834 64.8728 43.1628 64.8729C45.1478 64.8759 47.1243 64.6139 49.04 64.0939C52.1976 63.2533 55.1293 61.7221 57.6233 59.6108L49.0536 53.9387L51.6779 51.0821L58.1154 59.2008C60.7952 56.8305 62.8724 53.8564 64.1749 50.5242C65.4775 47.1921 65.9681 43.5977 65.6061 40.0384C65.2442 36.4791 64.0401 33.0571 62.0935 30.0553C60.1468 27.0536 57.5135 24.5584 54.4114 22.7761C52.7259 21.7988 50.9202 21.0453 49.04 20.5346C45.9194 19.7021 42.656 19.5529 39.4725 20.0972C38.5852 19.2461 37.559 18.5527 36.4383 18.0471H36.3426L36.5749 17.8831C40.8918 16.7347 45.4338 16.7347 49.7507 17.8831C53.2304 18.8136 56.4712 20.4764 59.2565 22.7603C62.0417 25.0442 64.3072 27.8966 65.9013 31.1265C67.4955 34.3565 68.3815 37.8896 68.5002 41.4896C68.6189 45.0896 67.9675 48.6734 66.5896 52.0013C65.2117 55.3293 63.1391 58.3247 60.5103 60.7871C57.8816 63.2495 54.7573 65.1222 51.3465 66.28C47.9357 67.4377 44.317 67.8537 40.7324 67.5003C37.1479 67.1469 33.6801 66.0321 30.5611 64.2305C26.6868 62.0099 23.474 58.7971 21.2534 54.9228C20.1592 53.0367 19.3183 51.0147 18.7521 48.9089C18.6291 48.4716 18.5608 48.0205 18.4788 47.5422C19.4683 48.6993 20.694 49.6313 22.0734 50.2757C22.4962 51.4102 23.0128 52.5074 23.6179 53.556C25.6006 57.015 28.4689 59.8833 31.9279 61.866Z" fill="#45C295"/>
</g>
</g>
<defs>
<clipPath id="clip0_6_14">
<rect width="85" height="84.0569" fill="white" transform="translate(0.191284 0.292603)"/>
</clipPath>
<clipPath id="clip1_6_14">
<rect width="85" height="84.0569" fill="white" transform="translate(0.191284 0.292603)"/>
</clipPath>
</defs>
</svg>
